<?xml version="1.0" standalone="no"?>
<!DOCTYPE svg PUBLIC "-//W3C//DTD SVG 20010904//EN"
 "http://www.w3.org/TR/2001/REC-SVG-20010904/DTD/svg10.dtd">
<svg version="1.0" xmlns="http://www.w3.org/2000/svg"
 width="400.000000pt" height="400.000000pt" viewBox="0 0 400.000000 400.000000"
 preserveAspectRatio="xMidYMid meet">

<g transform="translate(0.000000,400.000000) scale(0.100000,-0.100000)"
fill="#000000" stroke="none">
<path d="M1455 2851 c-3 -11 -15 -23 -26 -26 -25 -8 -25 -35 1 -35 18 0 20 -7
20 -75 l0 -75 -59 0 c-41 0 -65 -5 -75 -16 -26 -25 -9 -34 65 -34 l69 0 0
-115 0 -115 -277 2 -278 3 -3 43 c-4 60 -36 51 -44 -13 -3 -27 -7 -31 -43 -35
-27 -3 -41 -10 -43 -22 -3 -15 4 -18 42 -18 l46 0 0 -85 0 -85 -60 0 -61 0 3
-87 3 -88 58 -3 57 -3 -2 -357 -3 -357 -113 -3 c-108 -3 -112 -3 -102 -22 10
-18 22 -20 115 -20 l104 0 3 -37 c2 -27 8 -39 21 -41 14 -3 17 4 17 37 l0 41
280 0 280 0 0 -41 c0 -33 3 -40 18 -37 12 2 18 14 20 41 l3 37 509 0 509 0 3
-37 c2 -27 8 -39 21 -41 14 -3 17 4 17 37 l0 41 280 0 280 0 0 -41 c0 -33 3
-40 18 -37 11 2 19 15 22 38 l5 35 99 3 c92 3 126 11 126 33 0 5 -51 10 -112
11 l-113 3 0 355 0 355 58 3 57 3 0 89 0 89 -57 3 -58 3 -3 83 -3 82 45 0 c25
0 47 4 50 8 10 16 -11 31 -49 34 -38 3 -40 5 -43 38 -6 64 -42 63 -42 -1 l0
-39 -277 2 -278 3 -3 113 -3 112 76 0 c55 0 75 3 75 13 0 26 -25 37 -87 37
l-63 0 0 75 c0 68 2 75 20 75 26 0 26 30 1 37 -11 3 -21 13 -24 24 -7 25 -37
25 -37 -1 0 -18 -7 -20 -75 -20 -68 0 -75 2 -75 20 0 28 -17 25 -51 -9 -34
-35 -36 -47 -9 -54 18 -5 20 -14 20 -76 l0 -71 -315 0 -315 0 0 75 c0 68 2 75
20 75 27 0 25 7 -12 46 -38 39 -48 42 -48 14 0 -18 -7 -20 -80 -20 -73 0 -80
2 -80 20 0 26 -27 26 -35 1z m193 -138 l3 -73 -81 0 -80 0 0 68 c0 38 3 72 7
76 4 4 39 5 78 4 l70 -3 3 -72z m862 2 l0 -75 -75 0 -75 0 0 75 0 75 75 0 75
0 0 -75z m-862 -237 l-3 -113 -75 0 -75 0 -3 113 -3 112 81 0 81 0 -3 -112z
m670 0 l-3 -113 -312 -3 -313 -2 0 115 0 115 315 0 316 0 -3 -112z m190 0 l-3
-113 -72 -3 -73 -3 0 116 0 115 75 0 76 0 -3 -112z m-1058 -243 l0 -85 -280 0
-280 0 0 85 0 85 280 0 280 0 0 -85z m1060 -450 l0 -535 -507 2 -508 3 -3 533
-2 532 510 0 510 0 0 -535z m600 450 l0 -85 -280 0 -280 0 0 85 0 85 280 0
280 0 0 -85z m-1660 -175 l0 -50 -335 0 -335 0 0 50 0 50 335 0 335 0 0 -50z
m1775 0 l0 -45 -337 -3 -338 -2 0 50 0 50 338 -2 337 -3 0 -45z m-1775 -450
l0 -360 -280 0 -280 0 0 360 0 360 280 0 280 0 0 -360z m1660 0 l0 -360 -277
2 -278 3 -3 358 -2 357 280 0 280 0 0 -360z"/>
<path d="M1947 2010 c-142 -157 -223 -356 -234 -572 l-6 -108 290 0 291 0 5
22 c9 35 -10 206 -33 286 -40 142 -111 272 -202 368 -28 30 -54 54 -59 54 -4
0 -27 -23 -52 -50z m100 -64 c107 -122 178 -303 198 -498 l7 -68 -248 0 -247
0 6 83 c9 116 31 197 87 312 46 95 130 215 149 215 5 0 27 -20 48 -44z"/>
<path d="M1146 1747 c-45 -67 -86 -245 -86 -368 l0 -49 105 0 105 0 0 68 c-1
125 -44 298 -89 353 l-18 23 -17 -27z m53 -150 c11 -42 23 -111 27 -152 l7
-75 -61 0 c-33 0 -63 4 -67 10 -18 29 45 324 66 303 5 -5 18 -43 28 -86z"/>
<path d="M2813 1739 c-42 -69 -83 -252 -83 -371 l0 -38 105 0 105 0 0 68 c0
128 -40 291 -84 347 l-23 28 -20 -34z m50 -114 c19 -59 37 -164 37 -218 l0
-38 -62 3 -63 3 3 55 c6 105 46 271 62 253 4 -4 15 -30 23 -58z"/>
</g>
</svg>
